# xmcd
#
# Track frame offsets:
#	150
#	13995
#	31242
#	47592
#	65755
#	79780
#	90607
#	101192
#	110887
#	128387
#	144145
#	161457
#	173760
#	183965
#	198467
#	211135
#	225702
#	238792
#	252017
#
# Disc length: 3748
#
# Revision: 1
# Processed by: cddbd v1.5.1PL0 Copyright (c) Steve Scherf et al.
# Submitted via: VisiTrax 2.9.5.181 - For more info visit www.synapsa.com
# Normalized: r0:DSETVAR1
#
DISCID=fb0ea213
DTITLE=Various Artist - White Boy Blues Volume Two
DYEAR=1998
DGENRE=
TTITLE0=Savoy Brown Blues Band - I Tried
TTITLE1=Savoy Brown Blues Band - Cold Blooded Woman
TTITLE2=Savoy Brown Blues Band - Can`t Quit You Baby
TTITLE3=Savoy Brown Blues Band - True Blue
TTITLE4=Tony McPhee - Ain`t Gonna Cry No More
TTITLE5=Tony McPhee - You Don`t Love Me
TTITLE6=Tony McPhee - Someone To Love Me
TTITLE7=Dharma Blues Band - Roll `em Pete
TTITLE8=Albert Lee - The Next Mile Stone
TTITLE9=Albert Lee - Water On My Fire
TTITLE10=Albert Lee - Crosstown Link
TTITLE11=Stones Masonry - Flapjacks
TTITLE12=Cyril Davies and The Allstars - Not Fade Away
TTITLE13=Rod Stewart - So Much To Say
TTITLE14=John Mayll and The Bluesbreakers - On Top Of The World
TTITLE15=John Mayll and The Bluesbreakers - Hideaway
TTITLE16=John Mayll and The Bluesbreakers - The Supernatural
TTITLE17=Peter Green`s Fleetwood Mac - I Believe My Time Ain`t Long
TTITLE18=Chicken Shack (featuring Stan Webb) - When My Left I Jumps
EXTD=Castle Communications plc
EXTT0=
EXTT1=
EXTT2=
EXTT3=
EXTT4=
EXTT5=
EXTT6=
EXTT7=
EXTT8=
EXTT9=
EXTT10=
EXTT11=
EXTT12=
EXTT13=
EXTT14=
EXTT15=
EXTT16=
EXTT17=
EXTT18=
PLAYORDER=
